<?xml version="1.0" encoding="UTF-8"?>
<svg xmlns="http://www.w3.org/2000/svg" width="259.65" height="782.62" xmlns:xlink="http://www.w3.org/1999/xlink" viewBox="0 0 259.65 782.62">
  <defs>
    <style>
      .cls-1 {
        fill: url(#_Безымянный_градиент_13);
      }

      .cls-1, .cls-2, .cls-3, .cls-4, .cls-5, .cls-6, .cls-7, .cls-8, .cls-9, .cls-10, .cls-11 {
        stroke-width: 0px;
      }

      .cls-2 {
        fill: url(#_Безымянный_градиент_11);
      }

      .cls-4 {
        fill: #f6f6f6;
      }

      .cls-5 {
        fill: #282e35;
      }

      .cls-6 {
        fill: #2f3949;
      }

      .cls-7 {
        fill: #1b2b30;
      }

      .cls-8 {
        fill: #23292b;
      }

      .cls-9 {
        fill: #fff;
      }

      .cls-10 {
        fill: #efefef;
      }

      .cls-11 {
        fill: #fbfdff;
      }
    </style>
    <linearGradient id="_Безымянный_градиент_11" data-name="Безымянный градиент 11" x1="116.22" y1="74.63" x2="118.13" y2="70.52" gradientUnits="userSpaceOnUse">
      <stop offset=".11" stop-color="#282e35"/>
      <stop offset="1" stop-color="#21272d"/>
    </linearGradient>
    <linearGradient id="_Безымянный_градиент_13" data-name="Безымянный градиент 13" x1="87.13" y1="78.86" x2="85.84" y2="69.93" gradientUnits="userSpaceOnUse">
      <stop offset=".09" stop-color="#282e35"/>
      <stop offset=".87" stop-color="#21272d"/>
    </linearGradient>
  </defs>
  <g id="right_arm" data-name="right arm">
    <path id="right_arm-2" data-name="right arm" class="cls-5" d="M63.55,204.17c-2.27,10.63-5.01,21.84-8.34,33.52-2.66,9.32-5.47,18.17-8.36,26.55,0,13.22-.21,27.82-.78,43.64-.89,24.77-2.12,37.38-8.77,51.59-2.02,4.31-4.04,7.72-5.51,10.01,1.35,1.6,3.1,4.09,4.11,7.45,1.53,5.1-.26,6.89-.08,14.79.18,7.95,2.07,10.18,0,13.94-.14.25-2.73,4.82-6.3,4.53-2.8-.22-4.51-3.32-4.77-3.81-1.72-3.24-.08-5.42-1.02-8.95-.51-1.91-1.87-4.59-5.93-7.25-.6,1.88-1.21,4.65-.78,7.88.35,2.66,1.17,3.81,2.8,7.81,2.8,6.85,4.2,10.28,2.89,12.15-1.44,2.04-5.59,1.97-8.47,1.07-8.45-2.63-11.62-14.11-12.69-18-1.86-6.75-.54-7.73-1-26.65-.5-20.37-1.47-19.04,1.57-38.96,1.77-11.57,4.42-20.3,6.7-27.77,4.19-13.76,8.43-23.31,9.46-25.6,1.72-3.82,4.09-9.09,7.9-15.7,2.41-4.17,2.98-4.7,4.56-7.79,2.7-5.26,3.94-9.37,5.88-15.92,2.82-9.54,4.37-17.83,4.69-19.59.74-4.03.81-5.21,1.61-8.42,1.55-6.19,3.96-12.55,3.96-12.55h0s-2.85-14.87,3.49-24.83c3.75-5.89,11.89-13.69,17.54-11.43,5.06,2.02,5.58,11.16,5.72,13.53.71,12.28-7.07,21.55-10.09,24.79Z"/>
  </g>
  <g id="body">
    <path class="cls-8" d="M117.07,314.14c5.76-6.9,15.79-11.58,20.2-8.58,3.59,2.44.64,8.05,2.57,22.57.63,4.76,1.1,4.64,5.2,21.93,1.53,6.46,3.02,12.94,4.53,19.41,6.51,27.85,9.16,76.8,9.16,76.8,2.43,44.96,3.5,71.39,2.25,109.15-.41,12.42-2.66,39.76-7.17,94.44-1.9,23.11-3.8,44.88-1.47,69.87,2.14,23,7.79,48.01,10.03,52.34.26.52,1.84,3.39,2.33,7.46.16,1.32.17,2.41.15,3.1-5.57-1.87-11.14-3.73-16.71-5.6-.74-4.59-1.76-11.72-2.45-20.5-1.01-12.68-.64-19.97-.96-35.91-.09-4.36-.15-5.43-.24-8.86-.59-22.81-.06-36.97-.08-59.91-.03-31.14-1.02-26-.71-47.06.2-13.2.67-20.89-.82-33.3-1.15-9.62-2.14-10.87-1.91-17.13.38-10.71,3.56-15.26,3.44-26.9-.04-4.26-.51-7.61-1.31-12.19-5.46-31.31-18.03-71.5-18.03-71.5h0c-5.73-36.87-10.16-68.98-13.83-96.09-1.12-8.23-2.92-23.03,5.84-33.51Z"/>
    <path class="cls-8" d="M92.55,347.86c-7.88,17.14-16.45,46.07-22.22,98.64-1.43,4.64-2.63,8.37-3.4,10.73-4.73,14.47-13.88,40.74-17.17,52.27-.48,1.68-1.42,5.1-2.1,9.66-.44,2.97-.6,5.23-.68,6.41-1.37,20.69-.84,20.51-1.7,24.55-1.57,7.34-3.36,8-4.75,16.61-.74,4.61-.83,8.14-.86,9.5-.56,24.78-3.5,36.03-4.66,89.36-.41,19.03.35,26.88-1.61,41.71-2.34,17.69-3.77,27.01-4.75,30.95-1.87,7.57-5,17.88-6.08,21.42-1.5,4.95-2.81,9.04-3.75,11.91-3.61-.06-7.23-.12-10.84-.18-.92-3.18-.47-5.03.12-6.14.26-.49.61-.93,1.07-1.89.84-1.75,1.1-3.19,1.18-3.59.62-3.1,4.34-12.47,8.8-27.61,3.64-12.38,5.48-18.72,6.13-26.18.52-5.99.28-10.23.13-13.79-.56-13.82.35-17.33,1.01-40.58.77-27.15,1.37-48.4.05-69.07-.31-4.84-.67-14.51-.1-27.56.2-4.58.54-12.15,1.78-21.89,1.72-13.58,3.02-15.14,5.6-31.55.94-5.96,1.85-13.01,2.67-22.01,1.65-18.15,1.02-20.79,3.84-48.17,1.02-9.95,1.54-14.92,2.19-19.24,3.04-20.01,8.19-38.26,14.98-55.71h0c.75-2.67,1.72-5.78,2.99-9.21,4.06-10.99,8.16-14.68,11.35-22.95,1.45-3.75,3.13-9.42,3.5-17.01,6.72,1.44,16.2,4.67,20.37,12.65,5.38,10.31-.91,23.18-3.12,28Z"/>
    <path class="cls-8" d="M92.55,347.86c-9.8-7.48-13.78-17.91-14.57-20.08-3.37-9.27-2.72-16.96-2.54-18.71h0c0-.09-2.03-20.11,4.86-31.8.01-.02.02-.04.05-.08,2.17-3.7,2.86-7.12,3.07-8.38.58-3.41.33-6.31,0-8.24-1.78-3.38-3.76-7.18-5.9-11.36-4.38-8.55-5.51-11.05-6.26-14.72-.26-1.28-.38-2.21-.71-9-.6-12.38-.44-13.84-.73-17.46-.75-9.35-2.58-9.23-4.03-19.08-1.75-11.93-2.41-17.97.86-24.03,3.72-6.9,12.78-12.68,19.68-13.73.85-.13,2.18-.27,3.46-1.24,3.62-2.74,3.24-9.31,2.34-14.48,11.13-2.77,22.27-5.54,33.4-8.31-.67,8-1.07,13.9-1.21,16.03-.05.72.2,1.72.77,2.79,1.16,2.16,3.29,3.1,4.2,3.48,8.93,3.79,16.75,6.07,20.58,8.77,9.56,6.72,7.39,25.27,6.82,30.63-.7,6.54-3.31,12.83-8.46,25.16-5.52,13.2-10.47,22.72-10.47,22.72-2.01,3.03-4.27,7.06-6.07,12.07-2.67,7.44-3.26,14.08-3.28,18.66,1.79,4.42,4.14,10.85,6.13,18.86.92,3.69,1.77,7.13,2.23,10.79.5,3.99,2.32,18.51-6.4,32.85-4.61,7.59-9.78,11.17-19.15,17.68-3.22,2.23-6.54,4.22-10.67,3.88-2.18-.18-4.49-.99-8.01-3.67Z"/>
    <path class="cls-10" d="M80.97,327.61c.23,3.34.34,7.4.13,12.03-.14,3.07-.32,6.16-.97,10.26-.75,4.7-1.78,8.01-2.82,13.56-.88,4.66-1.27,7.96-1.83,12.99-1.24,11.16-.64,13.08-1.4,19.66-1.29,11.06-3.83,12.92-5.46,21.68-1.2,6.49-1.78,16.1,1.72,28.7,3.43-6.79,6.24-12.29,8.11-15.91,8.81-17.09,10.87-20.47,14.22-28.66,3.14-7.67,4.71-11.5,5.25-13.82,1.13-4.85,1.38-9.02,4.67-13.56,1.57-2.18,3.01-3.28,3.88-4.1,3.43-3.21,6.67-9.84,5.48-24.94-10.33-5.97-20.66-11.93-30.98-17.9Z"/>
    <path class="cls-4" d="M123.04,305.55c.13-3.91-.05-9.23-.31-19.88-.1-4.03-.2-7.15-.68-11.33-.78-6.72-1.51-7.08-1.78-10.7-.3-3.96.42-5.38,4.51-20.06,2.98-10.72,3.06-11.63,4.42-14.45,2.89-6,5.73-8.5,8.62-12.35,8.45-11.28,9.84-24.11,10.02-26.48.99-12.59-2.3-30.48-10.77-33.79-.77-.3-3.89-1.38-8.52-3.32-5.34-2.23-6.31-2.92-7.07-3.99-1.4-1.95-1.27-3.81-1.11-9.53.07-2.57.1-6.41-.13-11.19-7.69,1.91-15.37,3.82-23.06,5.74.66,5.87.58,13.56-4.15,17.46-1.7,1.4-3.29,1.73-4.95,2.23-7.74,2.32-18.45,8.81-22.11,17.79-2.29,5.62-1.34,11.09.18,20.16.63,3.74,1.48,6.57,3.17,12.21,4,13.34,5.19,14.05,6.28,20.82,1.28,8.01-.4,7.8,1.19,13.82,1.93,7.31,4.49,7.89,6.87,16.27.85,2.99,2.1,7.56,1.63,13.31-.4,4.95-1.85,7.94-3.01,11.17-2.95,8.21-3.1,14.89-2.91,28.22.12,8.44.25,14.54,2.22,22.6,1.95,7.94,3.15,12.54,7.48,15.85,5.28,4.03,12.81,4.34,18.46,2.02,8.34-3.41,11.33-12.03,13.32-17.77,1.51-4.36,1.74-11.18,2.21-24.84Z"/>
    <path class="cls-11" d="M111.23,347.66c-.82,2.52-1.38,4.22-1.92,6.72-.89,4.1-1.81,10.58.28,30.29.4,3.72.75,7.08,1.29,10.65,3.03,20.19,10.82,40.57,14.78,50.26,1.53-13.91,6.41-60.17,3.6-74.53-.94-4.8-1.92-9.48-1.92-9.48-2.1-10.1-2.91-12.99-3.9-18.18-.78-4.07-1.23-8.49-1.88-15.77-2.93,4.84-7.28,10.63-10.33,20.04Z"/>
  </g>
  <g id="tuft">
    <path class="cls-9" d="M95.41,148.77c.99,2.38,2.01,4.82,3.89,5.39,3.79,1.14,6.4-6.8,15.25-9.08,1.97-.51,2.79-.35,5.72-1.24,1.57-.48,4.73-1.47,8.35-3.64,4.42-2.65,5.33-4.53,9.57-6.84,2.85-1.55,5.4-2.31,6.98-2.7.21,1.1.35,2.78-.38,4.47-.71,1.65-1.73,2.1-2.7,3.77-.58.99-1.24,2.59-1.26,5.03,1.56-1.28,4.26-3.15,8.05-4.21,2.44-.69,4.61-.84,6.23-.82-1.12,1.26-2.82,3.18-4.88,5.52-3.93,4.45-4.84,6.39-7.67,8.68,0,0,0,0,0,0-1.5,1.2-2.57,1.74-2.78,1.9-1.57,1.16,3.15,7.59,2.13,13.48-.64,3.71-2.82,2.92-4.78,8.68,0,0-.5,1.46-1.95,9.63l-1.02-9.41s-2.06,5.86-3.62,9.55c-2.27,5.35-4.94,8.96-6.73,11.38-.55.74-5.75,7.54-11.17,11.85-.38.3-1.64,1.55-1.64,1.55-.78,1.28-1.12,2.38-1.28,3.15-.45,2.11-.01,3.65-1.16,4.92-.18.2-.59.65-.88.55-.64-.23-.21-2.99.27-5.39,0,0-2.35,3.39-5.2,7.88-2.18,3.44-4.27,6.09-5.79,7.88-1.16-1.49-2.54-3.6-3.58-6.36-.55-1.46-.9-2.82-1.13-4.01-1.77,1.53-3.53,3.05-5.3,4.58-.43-.81-.83-1.9-.76-3.16.14-2.54,2.11-4.3,1.96-4.42,0,0-.15-.12-3.32,3.34,0,0-1.03-2.09-1.77-6.2-.55-3.01-1.09-5.45-1.48-7.09.16,3.62.16,7.66-.74,7.83-1.15.22-2.67-6.19-6.65-16.25-6.13-15.52-9.74-15.7-9.24-21.65.66-8.01,7.19-12.59,4.52-18.09-.82-1.69-1.84-2.17-3.25-5.02-1.58-3.19-1.99-6.26-2.07-8.42,2.02-.13,4.42-.11,7.09.3,6.08.92,10.66,3.35,13.44,5.17-6.15-12.99-6.46-15.78-5.91-16.25.03-.03.06-.05.06-.05.24-.15.96-.24,4.52,1.23,6.15,2.54,9.23,3.81,10.64,6.65,1.08,2.17.1,2.8,1.43,5.98Z"/>
  </g>
  <g id="head">
    <path class="cls-7" d="M73.82,111c-.68-.57-1.65-1.5-2.46-2.86-.55-.93-1.86-3.45-1.17-10.08.57-5.51.96-9.25,3.3-10.31,2.26-1.02,5.1,1.01,6.49,1.84,13.9,8.32,37.03-11.1,46.55-2.74,2.56,2.25,4.3,6.65,3.77,10.61-.44,3.29-2.35,5.58-2.94,6.23-1.74,1.93-3.58,2.68-7.41,4.17-6.84,2.66-10.26,3.97-10.89,4.12-5.73,1.38-8.65.43-19.33-.35-3.8-.28-9.25-.59-15.9-.64Z"/>
    <path class="cls-3" d="M73.75,96.79c-2.16,1.3-1.61,5.48-1.4,7.1.27,2.07.84,6.3,3.61,7.18.89.28,2.14.25,3.03-.43,2.1-1.6.95-5.84.22-8.51-.59-2.18-1.42-5.21-3.49-5.66-1.02-.22-1.89.28-1.97.33Z"/>
    <path class="cls-9" d="M74.11,104.06c.51,3.05,2.02,6.36,2.8,6.2.79-.16.87-3.92.08-7.06-.56-2.23-1.77-4.99-2.47-4.86-.71.14-.82,3.23-.4,5.71Z"/>
    <path class="cls-3" d="M115.52,93.89c2.78,1.8,1.57,7.37,1.28,8.71-.41,1.89-1.41,6.47-4.9,7.58-.31.1-2.44.74-3.81-.36-1.84-1.48-.82-5.11.6-10.21,1.33-4.79,2.45-5.63,3.29-5.98,1.08-.45,2.5-.42,3.55.26Z"/>
    <path class="cls-9" d="M112.22,96.55c-1.05.55-1.39,2.02-2.03,4.94-.96,4.34-1.42,6.52-.73,7.01.54.38,1.35.1,1.62,0,1.9-.68,2.52-3.21,3.3-6.58.63-2.75,1.05-4.67.09-5.4-.61-.47-1.61-.29-2.24.04Z"/>
    <path class="cls-9" d="M72.71,87.34c-.99,1.56-2.33,4.15-2.9,7.59-.92,5.58.77,10.03,1.61,11.88-.25-2.12-.32-4.01-.32-5.58,0-.68.03-3.1.51-6.32.52-3.51.82-5.38,1.85-5.66.84-.23,1.77.73,2.62,1.61,1.82,1.88,2.49,4.06,3.07,6.12.41,1.46.63,2.69.76,3.52,8.43.02,16.87.04,25.3.06.19-.45.47-1.08.84-1.83,1.04-2.08,2.15-3.71,2.8-4.57,3.88-5.12,9.99-7.2,10.3-7.31,2.37-.78,3.69-.71,4.71-.44,1.87.48,3.02,1.68,3.4,2.09,1.53,1.64,1.88,3.48,2.17,5.05.53,2.85-.02,5.03-.34,6.26-.31,1.2-.67,1.96-1.16,2.6-.43.58-.88.98-1.2,1.22.86-.46,2.08-1.24,3.15-2.54,2.95-3.58,3.96-10.04.42-13.87-2.49-2.7-6.11-2.88-7.22-2.89-16.79,1-33.58,1.99-50.38,2.99Z"/>
    <path class="cls-5" d="M70.61,122.1c-2.78-1.22-7.05-3.06-12.31-5.21-7.15-2.93-11.8-4.65-13.09-5.16-12.93-5.11-28.17-22.69-35.15-43.13-3.24-9.5-3.84-17.08-4.59-26.64-1.19-15.12.07-27.77,1.47-36.57.94,1.57,2.34,3.97,3.88,6.97,7.64,14.76,6.7,19.95,11.65,30.81,5.83,12.78,14.49,21.69,19.96,27.33,6.34,6.53,7.8,6.75,12.06,11.65,5.65,6.51,14.29,28.86,14.29,28.86-.18-.78-.36-1.57-.54-2.35-.02-.41-.04-1.02-.05-1.76-.03-1.83-.22-13.43,3.23-21.39,4.76-10.99,16.73-15.68,19.84-16.89,2.57-1,19.41-7.28,35.6,2.54,18.87,11.45,18.97,33.93,18.95,35,2.68-1.41,4.87-2.47,6.31-3.15,5.03-2.38,7.14-3.03,10.17-5.21,1.89-1.36,3.18-2.56,3.83-3.17,13.52-12.66,18.32-18.1,18.32-18.1,11.01-12.48,16.51-18.72,21.31-24.67,8.73-10.84,24.24-26.41,53.88-46-7.35,18.3-14.26,33.36-19.63,44.5-14.07,29.21-19.13,34.64-22.38,37.75-12.96,12.4-28.71,17.89-39.5,21.65-9.33,3.25-18.08,5.12-34.5,11.85-5.37,2.2-9.74,4.17-12.66,5.53-20.12-1.68-40.25-3.37-60.37-5.05ZM126.76,86.29c-5.39-3.41-15.85,2.43-19.75,9.69-3.07,5.71-3.5,14.96-3.5,14.96h0c1.64.41,4.19.79,7.02.03,1.65-.44,2.77-1.1,3.28-1.4,8.41-4.87,12.94-4.41,15.41-8.29,2.83-4.42,1.63-12.39-2.46-14.99ZM79.41,110.21c.96-6.27.45-11.01-.06-13.8-.34-1.85-1.01-4.86-3.39-7.22-.79-.78-1.61-1.6-2.47-1.44-1.9.36-2.44,5.15-2.81,8.53-.33,2.97-.1,4.86.35,8.65.2,1.63.51,2.42,1.06,3.23.42.62.88,1.05,1.22,1.32.9.19,1.88.36,2.93.49,1.13.14,2.2.21,3.17.24Z"/>
    <path class="cls-9" d="M68.26,108.65c.41.84,1.33,2.48,2.99,3.67.31.22.98.7,1.97,1.05.93.33,1.69.39,1.96.41,0,0,0,0,0,0,1.08,0,28.56,1,32.59.67,1.17-.1,2.27-.38,2.27-.38.91-.24,1.58-.52,1.87-.65,3.14-1.34,14.19-6.16,15.85-7.16.08-.05.35-.22.75-.37.48-.19.88-.25,1.1-.28,1.38-.2,3.18-.39,3.31-.41-.65,7.31-1.3,14.63-1.95,21.94-2.6,1.05-6.55,2.6-11.43,4.31-12.47,4.36-18.7,6.54-24.51,6.26-2.38-.12-14.1-.86-20.62-9.14-4.05-5.15-5.09-11.75-5.72-15.8-.27-1.69-.39-3.12-.45-4.12Z"/>
    <path class="cls-3" d="M79.85,113.92c-.34.95,1.12,2.26,3.48,4.38.25.22.71.61,1.24.55.49-.06.81-.46.92-.6,1.5-1.82,4.6-2.99,4.41-4.03-.32-1.7-9.31-2.38-10.05-.3Z"/>
    <path class="cls-3" d="M82.3,127.79c.05.38.74.72,1.3.63.42-.07.52-.34,1.14-.72,0,0,.42-.25,1.19-.51,1.55-.52,3.28.31,6.18.47.36.02.88.04.91-.08.02-.09-.24-.24-.94-.51-1.06-.41-2.58-.86-6.11-1.17-.46-.04-1.04-.08-1.69.18-.44.18-.73.42-1.18.78-.56.46-.84.69-.81.94Z"/>
    <path class="cls-2" d="M120.49,77.3c1.98-3.39,3.96-6.79,5.95-10.18-3.94-.58-7.88-1.17-11.81-1.75-1.68,3.02-3.35,6.04-5.03,9.06"/>
    <path class="cls-1" d="M91.27,74.23c-.03-3.36-.06-6.72-.1-10.07l-10.67,3.97.72,12.53"/>
    <path class="cls-6" d="M90.23,65.64c1.16-1.79,2.83-4.51,4.56-7.97,2.69-5.4,6.11-13.09,9.01-33.44.96-6.77,2.02-14.93,3-24.23-7.64,8.74-19.16,24.56-24.02,47-1.69,7.78-2.26,14.93-2.28,21.12"/>
    <path class="cls-6" d="M126.44,67.12c3.76-3.23,8.94-7.87,14.8-13.77,6.25-6.3,13.98-14.15,22.07-25.65,3.25-4.61,7.45-11.09,11.71-19.32-12.07,2.79-20.2,7.69-25.05,11.24-8.65,6.35-13.68,13.43-22.81,26.3-5.56,7.84-9.74,14.64-12.55,19.44"/>
  </g>
  <g id="left_arm" data-name="left arm">
    <path id="left_arm-2" data-name="left arm" class="cls-5" d="M217.27,353.05h-.01c-.4,5.6-1.4,12.26-3.58,19.54-1.04,3.47-2.22,6.64-3.43,9.5.42,4.53.83,9.07,1.24,13.6-1.96,7.35-4.79,12.84-6.96,16.41-3.7,6.09-7.16,11.83-13.85,14.35-1.59.6-7.1,2.67-10.11.1-3.28-2.79-2.16-9.88.29-14.26,1.86-3.32,3.55-3.48,5.04-6.33,2.31-4.42,1.15-9.66-.42-13.74-5.08,2.62-6.61,5.24-6.99,7.25,0,0-1.42,7.41-2.4,8.68-.03.04-.08.1-.14.17-.34.43-2.4,2.96-5.17,2.85-3.02-.12-4.69-3.31-4.82-3.58-.82-1.63-.74-3.19-.44-5.56.6-4.75,1.38-7.46,1.91-10.08,1.3-6.38.04-6.91,1.22-11.44.64-2.47,1.95-5.94,4.97-9.81-1.03-4.41-2.41-11.53-2.79-20.35-1.01-23.46,6.03-36.12,10.03-61.41,1.33-8.41,2.78-21.04,2.39-36.92-4.05-8.11-8.25-16.3-12.59-24.59-5.03-9.61-10.08-18.99-15.14-28.16-11.21-7.04-17.54-17.87-15.81-27.52.26-1.44,1.62-9.02,8.24-12.65,5.14-2.82,10.89-1.86,14.12-.5,9.01,3.79,14.2,17.37,11.71,33.55,5.29,8.99,9.21,16.54,11.87,21.92,2,4.05,5.71,11.59,13,26.73,3.8,7.89,4.39,9.17,5.27,11.48,2.18,5.7,3.39,10.37,5.66,21.86,2.23,11.32,3.36,16.98,4.33,22.9,5.45,33.02,4.7,46.42,3.35,56.01Z"/>
  </g>
</svg>