<?xml version="1.0" encoding="utf-8"?>
<!-- Generator: Adobe Illustrator 28.2.0, SVG Export Plug-In . SVG Version: 6.00 Build 0)  -->
<svg version="1.1" id="Слой_1" xmlns="http://www.w3.org/2000/svg" xmlns:xlink="http://www.w3.org/1999/xlink" x="0px" y="0px"
	 viewBox="0 0 1280 1280" style="enable-background:new 0 0 1280 1280;" xml:space="preserve">
<style type="text/css">
	.st0{fill:#C7DBFA;}
	.st1{fill:#BED7FF;}
	.st2{fill:#B6D4FF;}
	.st3{fill:#C8DCFA;}
	.st4{fill:#CAE1FF;}
	.st5{fill:#E6E6E6;}
	.st6{fill:#0071BC;}
	.st7{fill:#1A1A1A;}
	.st8{fill:#333333;}
	.st9{fill:#C9DBFA;}
	.st10{fill:#F2F2F2;}
	.st11{fill:#1A64BC;}
</style>
<g id="Слой_4">
	<path class="st0" d="M623.1,1051.2c-0.2,20.7-0.4,41.3-0.5,61.9c-8,2.9-19.6,7.2-33.3,12.6c-33.9,13.4-50.8,20.1-60.5,27.1
		c-10,7.2-32.2,27.6-36.8,82.4c37,13.8,104.3,33.3,189.5,27.2c94.2-6.8,163.3-41.6,198.1-62.3c-1.1-5-3.3-12.3-7.9-20
		c-11.3-19-29.3-26.6-58.7-38.7c-34.5-14.2-59.2-24.2-72-29.3c-1.1-27.8-2.1-55.7-3.2-83.5c-4.2,0.8-8.4,1.6-12.5,2.5
		C691.1,1037.9,657.1,1044.6,623.1,1051.2z"/>
	<path class="st1" d="M737.7,1028.7l3.2,83.5c-4.7,2.5-11.6,6.1-20.2,10c-49,22.4-85.8,26-105.3,30.9c-28.1,7.1-65.2,28-103,89.9
		c-6.8-2.5-13.6-5.1-20.5-7.6c3.2-49,23.9-70.2,32.4-77.5c12.4-10.7,29.9-17.8,64.9-32.1c13.7-5.6,25.3-9.8,33.3-12.6
		c1-26.4,2-52.7,2.9-79.1C662.9,1032.3,700.3,1030.5,737.7,1028.7z"/>
	<path class="st2" d="M699.3,1061.5c-19.5,19-29.4,28.6-39.9,35.1c-8.4,5.3-20.6,11.7-36.9,16.6l0.5-62
		c11.1-4.7,27.6-11.1,48.4-16.1c14.7-3.6,50-12.1,53.7-4C726,1033.2,725.1,1036.4,699.3,1061.5z"/>
</g>
<g id="Слой_2_00000114045143193997888620000004436699634782780335_">
	<path class="st3" d="M830,892.7c0,0,100.5-19.8,134-40c55.5-33.6,112.1-67.8,148-140c28.6-57.5,28.8-108.3,29-164
		c0.3-83.2-39-179-39-179c-20.8,46.7-43.9,80.1-61,102c-65.2,83.2-116,89.7-148,166c-17.7,42.2-27,84-27,84c-6.7,30-8.1,50.4-20,82
		c-7.5,20.1-16,35.7-22,46C826,864,828,878.4,830,892.7z"/>
	<path class="st3" d="M476,899.7c-14.4-2.5-33.6-7-55.2-15.5c-19-7.5-52-23-84.8-52.5c-11.7-10.6-58.9-54.8-82-130
		c-9.4-30.5-10.6-54-13-101c-4.7-92.7,11.9-143,16-155c6-17.3,12.4-31.1,17-40c8.5,19.3,22.9,48.2,46,80c24.1,33.2,35,38,58,72
		c27.9,41.1,40.6,76.2,44,86c11.4,32.7,11.9,51.1,18,88c5.3,32.2,14.8,78.2,33,134C474,877,475,888.4,476,899.7z"/>
	<path class="st4" d="M482.5,740.2c-32.3,47.9-23.5,100.7-22,109c3.1,16.9,8.7,30.3,13,39c-5,7.3-12,19.7-14,36
		c-6.2,50,40.2,89.1,52,99c27.2,22.9,55.7,31.6,70,35c83.7,19.9,192.3-21.1,234-103c20.7-40.6,20.3-82.2,20-113
		c-0.3-31-0.6-62.8-19-95c-25.7-45-70.1-62.2-90-70c-86.6-33.7-165,3.6-178,10C528.9,697,502.6,710.4,482.5,740.2z"/>
	<path class="st5" d="M498,841.7c-7.5,2.1-11.7,5.6-14,9c-13.4,19.6,11.7,66.8,41,73c3.1,0.7,13.5,2.8,20-3c5-4.5,5.5-11.8,6-19
		c0.3-4.7,0.8-11.8-2-13c-3.6-1.5-7.4,9-15,10c-13.2,1.8-34.2-25.7-29-44c1.5-5.1,5.2-10.4,3-13C506.2,839.6,501.5,840.6,498,841.7z
		"/>
	<path class="st6" d="M500,841.7c-2.3,4.5-8.6,18.1-5,35c0.8,3.6,4.8,22.6,21,31c8.2,4.2,16.2,4.1,19,4c7.2-0.2,10.1-2.3,11-3
		c3.3-2.6,4.5-6.2,5-8c0-4.2-0.3-10.1-2-17c-3.7-15.4-12-26.5-13-26c-0.8,0.4,4.2,8.5,4,21c-0.1,4.6-0.2,13.8-5,16
		c-5.1,2.3-12.7-4.8-15-7c-0.9-0.8-13.6-13.2-12-29c0.7-6.5,4-15.9,4-16c-1.1-0.4-2.5-0.8-4-1C504.8,841.2,502,841.4,500,841.7z"/>
	<path class="st5" d="M664,902.7c20.5,14.2,66.4-1.8,84-34c7.3-13.3,8.2-26.5,8-35c-6-3.6-15.5-8.4-28-11c-11-2.3-31.7-6.7-51,5
		c-16.8,10.2-22.5,26.7-24,31c-1.9,5.8-4.9,14.6-2,25C653.2,891.6,658.3,898.8,664,902.7z"/>
	<path class="st6" d="M661,884.7c13.9,14.7,37.3,7.5,39,7c14.2-4.6,25.7-16.7,29-32c2.9-13.1,0.5-31.7-11-39
		c-19.6-12.5-61.3,10.8-65,38C652.9,859.7,651.1,874.2,661,884.7z"/>
	<path d="M473.5,888.2c-6.8-13.7-8.8-26.8-10.5-37.5c-1.5-9.7-1.9-18-2-24c6.6,8.7,11.5,10.5,15,10c2.9-0.4,4-2.2,8-4.3
		c0,0,7-3.8,16.5-4c10.7-0.3,18.9,6,24.5,10.4c14.7,11.3,20.9,25.8,23.5,31.9c9.3,22.2,6.7,42.7,5.5,51.1c-0.3,2.5-0.7,4.6-1,6
		c-1.6,0.4-3.9,0.8-6.7,1.3c-2.7,0.4-20.2,2.8-35.4-2.3C488.9,919.2,478.2,897.7,473.5,888.2z M484,850.7c-3.4,5-3.3,10.2-3,17
		c0.4,11.2,4.5,19.4,6.8,23.9c2.4,4.6,6.8,13.3,16.2,21.1c4.5,3.7,12,9.9,23,11c4.2,0.4,12.6,1.3,18-4c3.6-3.5,4.2-8.1,5-14
		c1-7,0-12.3-1-18c-0.9-5.3-2.1-11.7-6-19c-2.1-3.9-4.3-6.9-6-9c1.3,3.3,2.7,8.1,3,14c0.2,3.2,1,18.3-5,21c-6.5,2.9-20.1-8.5-25-22
		c-4.9-13.6,0.3-26.2,2-30c-1-0.3-2.4-0.7-4-1C500,840.4,489.3,843.1,484,850.7z"/>
	<path d="M642,915.7c-0.4-6.4-0.7-15.4,0-26c1-15.3,1.6-25.1,6-36c3.2-7.9,12.3-26.5,33-37c16.8-8.5,32.6-7.4,38-7
		c12.1,0.9,23,4.9,26,6c2.9,1.1,5.3,2.2,7,3c4.2-0.9,9.9-2.6,16-6c4.1-2.3,7.4-4.8,10-7c0.2,2.8,0.4,7,0,12c-0.9,10.1-3.8,17.6-8,27
		c-8.3,18.9-12.5,28.3-16,33c-10.2,13.5-22.2,20.2-29,24c-21,11.6-40.9,12.9-58,14C656.6,916.4,648,916.1,642,915.7z M668,853.7
		c-0.8-5-0.4-9.3,0-12c-3,2.6-11.9,11.1-14,25c-0.5,3.1-2.8,18.3,7,29c4.9,5.3,10.7,7.2,13,8c23.5,7.5,60.2-9.5,73-39
		c4-9.1,5-18,5-25c-5.4-3.6-10.6-6.2-15.2-8.1c-3.4-1.4-6.9-2.9-11.8-3.9c-4.8-1-9-1.1-12-1c1.4,4.4,3.2,11.9,2,21
		c-0.5,3.4-0.9,7-3,11c-4.4,8.5-13.1,14-22,15c-3.2,0.3-8.1,0.9-13-2C670.1,867.6,668.8,858.7,668,853.7z"/>
	<path class="st7" d="M550,945.7c0,0-0.2,2,0,4c0.8,6.8,5.2,11.2,8,14c3.6,3.6,12,11.9,23,11c2.8-0.2,5.8-1,11-4
		c11.2-6.4,26-19,26-28"/>
	<path class="st8" d="M618,942.7c0-0.5-0.1-1.2-0.5-2.1c-1.8-4.5-8.5-5.8-15.5-6.9c-2.1-0.3-8-1.2-16.2-0.9c-4,0.2-7.3,0.6-9.8,0.9
		c-0.8,0.1-13.5,2.2-20,5c-2.2,1-3.9,2.1-5,4c-0.7,1.2-0.9,2.2-1,3c0.4,0.5,1.1,1.2,2,2c3.4,2.9,7.3,3.6,10,4c15.7,2.1,28,0,28,0
		C597,950.5,606.8,948,618,942.7z"/>
	<path class="st7" d="M566,1007.7c0,1.7,7.5,5.1,14,3c4.3-1.4,5.3-4.2,10-5c3.4-0.6,6.1,0.4,8,1c12.1,3.8,24.9,2.5,25,2
		c0.1-0.5-13.7-1.7-23-6c-3-1.4-6-2.6-9-4c-3.5-1.7-3.9-2-5-2c-3.7,0-4.8,3.7-10,7C570.4,1007.2,566,1006.4,566,1007.7z"/>
	<g>
		<g>
			<path class="st7" d="M579.5,979.7c-0.5,4.8,0.3,9.4,2.2,13.8c0.8,1.8,3.4,0.2,2.6-1.5c-1.7-3.9-2.3-8-1.8-12.2
				C582.7,977.8,579.7,977.8,579.5,979.7L579.5,979.7z"/>
		</g>
	</g>
	<path d="M637,818.7c8.3-9.7,21.6-22.5,41-32c8.8-4.3,20.7-10,37-11c10.7-0.7,20.9,0.8,29,2c8.3,1.2,15.2,2.8,20,4
		c-5.4-4.8-17.3-14-35-18c-8.7-2-25.8-4.3-45,3c-4,1.5-25.4,10.1-39,33C640.6,807.1,638.3,813.9,637,818.7z"/>
	<path d="M533,817.7c-0.7-5.7-2.8-15.8-10-26c-4.7-6.7-10.5-14.8-21-17c-13.4-2.7-24.1,6.3-26,8c-8.4,7.4-10.5,16.9-11,20
		c1.4-1.6,3.4-3.8,6-6c0,0,7.4-6.2,15-9C496,784.1,516.5,795.2,533,817.7z"/>
	<path class="st9" d="M536,756.7c-9.3,1.6-24.9-32.4-33-62c-20.6-75.4,2-142.3,11-168c17.4-49.6,41.4-77.5,49-86
		c6.7-7.4,12.7-13.1,17-17c-1.7,10-4.2,26.5-6,47c-6.6,73.4,4.8,89.7-4,143c-5.8,35.1-11.4,31.6-20,80
		C542.9,733.7,543.2,755.5,536,756.7z"/>
	<path class="st9" d="M797.4,427.7c1.2,9.7,2.7,23.4,4,40c3.5,43.7,5.5,65.5,3,85c-4.9,38.8-20.7,66.8-28.6,80.4
		c-17.3,30-37,48.9-48.5,59.7c-3.2,3-6.2,5.7-9.1,8.2c-1.2,1-12.6,10.8-25.6,19.8c-16.1,11.1-47.6,32.9-53.4,27
		c-2.5-2.5,0.7-8.5,22.4-51.6c9.3-18.5,14-27.8,14.6-29.4c9.7-23.9,7.1-32.3,15.8-68.1c4.1-16.9,7.4-30.7,14.9-48.1
		c8.6-20.1,17.8-33.7,27.5-48c13.9-20.4,26.5-34.9,38-48C782.4,443.3,791.1,434.1,797.4,427.7z"/>
</g>
<g id="Слой_3">
	<path class="st10" d="M543,898.7c-3.1,0.2-5.5,3.2-6,6c-0.7,4.3,3,9.3,7,9c3.2-0.2,5.8-3.6,6-7C550.2,902.7,546.9,898.5,543,898.7z
		"/>
	<path class="st10" d="M513,875.7c-2.4-1.7-6.3-1.5-8,1c-1.5,2.2-0.8,5.3,1,7c2.6,2.4,7.4,1.9,9-1
		C516.2,880.5,515.2,877.3,513,875.7z"/>
	<path class="st10" d="M663,875.7c0.3,0,4.8-0.4,8,3c2.7,2.9,3.9,8.2,1,12c-2.9,3.8-8.4,4.1-12,2c-5-2.9-6-10.2-3-14
		C659,876.1,662.4,875.8,663,875.7z"/>
</g>
<g id="Слой_5">
	<g>
		<path class="st11" d="M674.5,883.6c0.5,0.1,1.2,0,1.9-0.1c1.1-0.2,1.7-0.7,1.6-1.2c0-0.4-0.5-0.6-1.6-0.6c-1.3,0-2.2-0.2-2.3-0.9
			c-0.1-0.7,0.9-1.5,2.5-1.8c0.8-0.2,1.4-0.2,1.8-0.2l-0.2,0.5c-0.3,0-0.8,0-1.5,0.1c-1.1,0.2-1.5,0.7-1.5,1c0,0.4,0.6,0.5,1.7,0.5
			c1.4,0,2.1,0.2,2.2,0.9c0.1,0.7-0.8,1.5-2.7,2c-0.8,0.2-1.7,0.2-2.1,0.2L674.5,883.6z"/>
		<path class="st11" d="M681.8,881.3l-0.7,1.6l-1.1,0.2l2.2-5.2l1.2-0.3l3.2,4l-1.1,0.2l-1-1.3L681.8,881.3z M684.3,880.3l-0.9-1.2
			c-0.2-0.3-0.4-0.5-0.5-0.8l0,0c-0.1,0.3-0.2,0.6-0.3,0.9l-0.6,1.5L684.3,880.3z"/>
		<path class="st11" d="M689,881.2l-3.1-4l1.1-0.2l1.5,2c0.4,0.5,0.8,1,1,1.5l0,0c0.2-0.6,0.4-1.2,0.7-1.9l1-2.5l1.1-0.2l-2.2,5.2
			L689,881.2z"/>
		<path class="st11" d="M697.5,877.2l-3,0.7l0.2,1.6l3.4-0.7l0.1,0.5l-4.4,1l-0.6-4.5l4.2-0.9l0.1,0.5l-3.2,0.7l0.2,1.4l3-0.6
			L697.5,877.2z"/>
		<path class="st11" d="M704.4,878.4l0,0.3l-5.7,1.2l0-0.3L704.4,878.4z"/>
		<path class="st11" d="M708.8,874.8l-2.9,0.6l0.2,1.6l3.3-0.7l0.1,0.5l-4.3,0.9l-0.6-4.5l4.1-0.9l0.1,0.5l-3.1,0.7l0.2,1.4l2.9-0.6
			L708.8,874.8z"/>
		<path class="st11" d="M714.3,873.6l-2.9,0.6l0.2,1.6l3.2-0.7l0.1,0.5l-4.2,0.9l-0.6-4.4l4-0.8l0.1,0.5l-3.1,0.7l0.2,1.4l2.9-0.6
			L714.3,873.6z"/>
		<path class="st11" d="M719.7,872.4l-2.9,0.6l0.2,1.6l3.2-0.7l0.1,0.5l-4.2,0.9l-0.7-4.4l4-0.8l0.1,0.5l-3,0.6l0.2,1.4l2.9-0.6
			L719.7,872.4z"/>
	</g>
</g>
</svg>
