<?xml version="1.0" encoding="UTF-8"?>
<svg id="_Слой_1" data-name="Слой 1" xmlns="http://www.w3.org/2000/svg" width="768" height="856.4785672" xmlns:xlink="http://www.w3.org/1999/xlink" viewBox="0 0 768 856.4785672">
  <defs>
    <style>
      .cls-1 {
        clip-path: url(#clippath);
      }

      .cls-2 {
        fill: none;
      }

      .cls-2, .cls-3, .cls-4, .cls-5 {
        stroke-width: 0px;
      }

      .cls-6 {
        stroke: #000;
        stroke-miterlimit: 10;
        stroke-width: 16.0821757px;
      }

      .cls-6, .cls-5 {
        fill: #fff;
      }

      .cls-7 {
        clip-path: url(#clippath-1);
      }

      .cls-8 {
        clip-path: url(#clippath-3);
      }

      .cls-9 {
        clip-path: url(#clippath-2);
      }

      .cls-4 {
        fill: #f2f2f2;
      }
    </style>
    <clipPath id="clippath">
      <rect class="cls-2" width="384" height="856.4785672"/>
    </clipPath>
    <clipPath id="clippath-1">
      <rect class="cls-2" x="384.0000002" y="0" width="384" height="856.4785672"/>
    </clipPath>
    <clipPath id="clippath-2">
      <rect class="cls-2" x="263.349165" y="668.9096444" width="81.16048" height="92.260995"/>
    </clipPath>
    <clipPath id="clippath-3">
      <rect class="cls-2" x="422.7823474" y="668.9096444" width="81.16048" height="92.260995"/>
    </clipPath>
  </defs>
  <g>
    <g id="_Зеркальный_повтор_" data-name="&amp;lt;Зеркальный повтор&amp;gt;">
      <g class="cls-1">
        <path class="cls-6" d="M394.1675919,485.712246c-2.2349306-.1982788-5.5438304-.4351458-9.5487917-.502568-45.3027126-.7626555-79.0383555,22.258449-88.4519655,29.1489432-9.6914273,7.0938649-24.1557167,19.4802149-37.190031,39.2003029C204.0293655,375.6498571,149.0819426,197.7407901,94.1344967,19.8317269c-16.2118666,27.6969438-36.5941479,67.3919045-53.2722027,117.6009049C25.5685711,183.4740432-1.8903401,269.2483864,11.7133508,380.6755369c4.4866708,36.7500386,16.9538169,129.76806,82.4211459,220.1247778,24.7677844,34.1840094,49.0157695,55.7519182,96.493061,97.4981893,96.8543354,85.1630041,202.6554177,150.7242616,203.8968073,151.5936944h0"/>
        <g>
          <path class="cls-5" d="M337.3859752,596.7644276c-14.4162726-74.5984811-26.3107854-133.6565826-34.5957087-174.2092963-.0000428-.0001303-23.3655703-113.6831232-23.3655703-113.6831232,0,0-27.9416248,31.0442139-34.7677717,49.7367011-8.9647059,24.5486638-13.4055073,78.9218524,7.864886,146.449291,8.6607307,27.4952711,24.4810851,67.6636275,54.4961357,111.6117565"/>
          <path class="cls-3" d="M332.4403688,597.7201538c-15.2240416-70.7832995-47.2111465-218.3639685-62.8614592-286.8244164.0003141-.000077,17.3165678,4.7005455,17.3165678,4.7005455-2.1932291,2.379483-4.4920318,4.9872668-6.6976928,7.5332642-6.5423788,7.6129849-13.0163104,15.6449085-18.6221996,23.8299476-3.5304393,5.2979996-6.7939476,10.2596713-8.9023986,16.2459084-1.0440269,2.8849178-1.983324,6.0824921-2.7059857,9.1043928-2.3007908,9.6029762-3.5883431,19.6136713-4.1298366,29.4621272-3.6258994,74.9327473,24.5674935,150.1086241,65.0710351,212.2406038,3.2030938,5.00669-3.9567851,10.3371844-7.7814733,5.3144589-16.2459629-23.0546681-30.3720528-47.636325-41.8829578-73.4180399-20.2100136-45.3943184-33.2949221-94.8499173-32.1569987-144.8531006.1716101-9.0306238,1.0699235-18.258845,2.4910645-27.2033393,1.6968102-9.4179545,4.021103-19.0145295,8.6395723-27.5095203,6.9711378-12.9499928,15.7259083-24.5197214,24.803967-35.8823675,4.5033832-5.9661095,15.4528425-17.519068,20.5940916-23.1365878,1.6904901,9.5875037,22.5098776,119.856259,24.8414565,132.7141007.7094782.9783642,31.3876209,174.7366894,31.8753975,175.7710967.9794463,6.3762996-8.2816268,8.4418215-9.8921498,1.910926h0Z"/>
        </g>
      </g>
    </g>
    <g id="_Зеркальный_повтор_-2" data-name="&amp;lt;Зеркальный повтор&amp;gt;">
      <g class="cls-7">
        <path class="cls-6" d="M373.8324083,485.712246c2.2349306-.1982788,5.5438304-.4351458,9.5487917-.502568,45.3027126-.7626555,79.0383555,22.258449,88.4519655,29.1489432,9.6914273,7.0938649,24.1557167,19.4802149,37.190031,39.2003029,54.9474382-177.909067,109.8948611-355.818134,164.842307-533.7271972,16.2118666,27.6969438,36.5941479,67.3919045,53.2722027,117.6009049,15.2937229,46.0414114,42.7526341,131.8157546,29.1489432,243.2429052-4.4866708,36.7500386-16.9538169,129.76806-82.4211459,220.1247778-24.7677844,34.1840094-49.0157695,55.7519182-96.493061,97.4981893-96.8543354,85.1630041-202.6554177,150.7242616-203.8968073,151.5936944h0"/>
        <g>
          <path class="cls-5" d="M430.614025,596.7644276c14.4162726-74.5984811,26.3107854-133.6565826,34.5957087-174.2092963.0000428-.0001303,23.3655703-113.6831232,23.3655703-113.6831232,0,0,27.9416248,31.0442139,34.7677717,49.7367011,8.9647059,24.5486638,13.4055073,78.9218524-7.864886,146.449291-8.6607307,27.4952711-24.4810851,67.6636275-54.4961357,111.6117565"/>
          <path class="cls-3" d="M425.6684266,595.8086548c14.3114127-79.6163966,41.7448758-230.1729144,56.7164218-308.4837418.0003161-.0006651,13.6615283,14.8236092,13.6622378,14.8238866,4.7705471,5.5434071,9.1546562,10.9853811,13.5570872,16.7541583,7.113231,9.448021,14.1977965,19.2749313,19.4788597,30.0663514,3.8709348,7.767615,5.7650019,16.4373245,7.3389681,24.8831825,1.4175565,8.951825,2.3198746,18.1683805,2.4908211,27.2033441,1.2623442,64.2375674-19.9947499,127.2065135-51.3430768,182.6087422-6.999372,12.250583-14.5763984,24.1557954-22.6967597,35.6625703-1.5005798,2.1264038-4.4408569,2.633667-6.5672302,1.1331177-2.0830078-1.4699707-2.6123352-4.3214722-1.2225037-6.4360352,7.588807-11.5165664,14.6187671-23.3853773,21.0620423-35.5493164,30.2099379-57.5123502,50.6958587-126.3629669,42.5791466-191.6469749-.8143653-6.2575411-2.1556021-13.1074953-3.9457351-19.1577518-2.0341694-7.6737558-5.8855435-14.1847512-10.3543652-20.7106529-7.5075359-10.9018771-16.371596-21.5373508-25.3191348-31.3625551-.003795-.0015969,17.3162153-4.7005823,17.3155691-4.701321-15.5541075,68.0225744-47.748527,216.5527698-62.860873,286.8245728-1.4237716,6.2565735-10.8372729,4.7658939-9.8914755-1.9115768h0Z"/>
        </g>
      </g>
    </g>
  </g>
  <g>
    <g id="_Зеркальный_повтор_-3" data-name="&amp;lt;Зеркальный повтор&amp;gt;">
      <g class="cls-9">
        <path class="cls-3" d="M267.0000001,671c-9.2992554,7.7167969.394043,37.6278076,15.2616882,56.9376831,17.603302,22.862854,48.9855042,39.3391113,58.7383118,31.0623169,9.2350159-7.8373413-1.026947-37.7813721-16-57-17.4163818-22.3547363-48.1802368-39.1487427-58-31Z"/>
        <path class="cls-4" d="M313.0000001,743c.5777893,7.522583,7.5941162,14.0594482,15,13,6.359375-.90979,10.7331848-7.0955811,11-13,.3447876-7.6297607-6.1337891-15.552002-14-15-7.1504211.50177-12.5527954,7.8026733-12,15Z"/>
      </g>
    </g>
    <g id="_Зеркальный_повтор_-4" data-name="&amp;lt;Зеркальный повтор&amp;gt;">
      <g class="cls-8">
        <path class="cls-3" d="M500.2919923,671c9.2992554,7.7167969-.394043,37.6278076-15.2616882,56.9376831-17.603302,22.862854-48.9855042,39.3391113-58.7383118,31.0623169-9.2350159-7.8373413,1.026947-37.7813721,16-57,17.4163818-22.3547363,48.1802368-39.1487427,58-31Z"/>
        <path class="cls-4" d="M454.2919923,743c-.5777893,7.522583-7.5941162,14.0594482-15,13-6.359375-.90979-10.7331848-7.0955811-11-13-.3447876-7.6297607,6.1337891-15.552002,14-15,7.1504211.50177,12.5527954,7.8026733,12,15Z"/>
      </g>
    </g>
  </g>
  <g>
    <path class="cls-3" d="M384.0000001,826c10.8333435-7.333313,21.6666565-14.666687,32.5-22h-32.5"/>
    <path class="cls-3" d="M384.0000001,826c-10.8333435-7.333313-21.6666565-14.666687-32.5-22h32.5"/>
  </g>
</svg>